<svg viewBox="0 0 512 512" xmlns="http://www.w3.org/2000/svg"><path d="M276 170a106 106 0 0 0-84.28 170.28 106 106 0 0 0 148.56-148.56A105.53 105.53 0 0 0 276 170Z" fill="#ffe205" class="fill-f7ad1e"></path><path d="M150.9 242.12A107.63 107.63 0 0 0 150 256a106 106 0 1 0 19.59-61.37M157.56 216.68c-.17.41-.34.81-.5 1.22M256 64v59M256 389v58.99M120.24 120.24l41.72 41.71M350.04 350.04l41.72 41.72M64 256h59M389 256h59M120.24 391.76l41.72-41.72M350.04 161.95l41.72-41.71" fill="none" stroke="#02005c" stroke-linecap="round" stroke-linejoin="round" stroke-width="20" class="stroke-02005c"></path></svg>